<svg width="16" height="13" viewBox="0 0 16 13" fill="none" xmlns="http://www.w3.org/2000/svg">
<path d="M9.49274 8.15137C9.31248 8.34483 9.09509 8.5 8.85356 8.60762C8.61202 8.71524 8.35129 8.77311 8.0869 8.77777C7.82251 8.78244 7.5599 8.7338 7.31472 8.63477C7.06954 8.53574 6.84681 8.38833 6.65983 8.20136C6.47286 8.01438 6.32545 7.79165 6.22642 7.54647C6.12739 7.30129 6.07875 7.03868 6.08342 6.77429C6.08808 6.5099 6.14595 6.24917 6.25357 6.00763C6.36119 5.7661 6.51636 5.54871 6.70982 5.36845M12 10.6586C10.878 11.5139 9.51185 11.9876 8.10128 12.0107C3.50683 12.0107 0.881429 6.75991 0.881429 6.75991C1.69786 5.23842 2.83022 3.90912 4.20256 2.86119L12 10.6586ZM6.72294 1.66663C7.17473 1.56088 7.63728 1.50802 8.10128 1.50911C12.6957 1.50911 15.3211 6.75991 15.3211 6.75991C14.9227 7.50527 14.4476 8.20699 13.9034 8.85367L6.72294 1.66663Z" stroke="#9D9D9D" stroke-width="1.3127" stroke-linecap="round" stroke-linejoin="round"/>
</svg>
