<svg width="16" height="16" viewBox="0 0 16 16" fill="none" xmlns="http://www.w3.org/2000/svg">
<path d="M9.49274 11.1514C9.31248 11.3448 9.09509 11.5 8.85356 11.6076C8.61202 11.7152 8.35129 11.7731 8.0869 11.7778C7.82251 11.7824 7.5599 11.7338 7.31472 11.6348C7.06954 11.5357 6.84681 11.3883 6.65983 11.2014C6.47286 11.0144 6.32545 10.7917 6.22642 10.5465C6.12739 10.3013 6.07875 10.0387 6.08342 9.77429C6.08808 9.5099 6.14595 9.24917 6.25357 9.00763C6.36119 8.7661 6.51636 8.54871 6.70982 8.36845M12 13.6586C10.878 14.5139 9.51185 14.9876 8.10128 15.0107C3.50683 15.0107 0.881429 9.75991 0.881429 9.75991C1.69786 8.23842 2.83022 6.90912 4.20256 5.86119L12 13.6586ZM6.72294 4.66663C7.17473 4.56088 7.63728 4.50802 8.10128 4.50911C12.6957 4.50911 15.3211 9.75991 15.3211 9.75991C14.9227 10.5053 14.4476 11.207 13.9034 11.8537L6.72294 4.66663Z" stroke="#9D9D9D" stroke-width="1.3127" stroke-linecap="round" stroke-linejoin="round"/>
<path d="M1 1L15.4397 15.4397" stroke="#9D9D9D" stroke-linecap="round" stroke-linejoin="round"/>
</svg>
